# xmcd
#
# Track frame offsets:
# 150
# 17393
# 36718
# 51209
# 62006
# 79641
# 90682
# 109872
# 122924
# 140705
# 158606
# 180187
#
# Disc length: 3028 seconds
#
#
# Revision: 0
# Processed by: cddbd v1.5.1PL0 Copyright (c) Steve Scherf et al.
# Submitted via: FreeRIP 2.942 
#
DISCID=980bd20c
DTITLE=Walter Gandini - Lucky
DYEAR=1900
DGENRE=Blues
TTITLE0=Boggie Thing (THe Muddy Waters Band)
TTITLE1=Chicken (Jaco Pastorius)
TTITLE2=Lucky (W.Gandini-G.Barragan)
TTITLE3=Blowin' the Family Jewels (William Clarke)
TTITLE4=Blues for Samantha (W.Gandini)
TTITLE5=Misty (E.Garner)
TTITLE6=All of Me (Simone-Marke)
TTITLE7=II Songo Blues (Carlos del Junco)
TTITLE8=Funny Thing (Michael Keith)
TTITLE9=Relaxin' (Walter Holton)
TTITLE10=The Cotton Creeper (Bobben Ford)
TTITLE11=Summertime (George Gershwin)
EXTD=
EXTT0=
EXTT1=
EXTT2=
EXTT3=
EXTT4=
EXTT5=
EXTT6=
EXTT7=
EXTT8=
EXTT9=
EXTT10=
EXTT11=
PLAYORDER=
